<?xml version="1.0" encoding="utf-8"?>
<!-- Generator: Adobe Illustrator 26.3.1, SVG Export Plug-In . SVG Version: 6.00 Build 0)  -->
<svg version="1.1" id="Ebene_1" xmlns="http://www.w3.org/2000/svg" xmlns:xlink="http://www.w3.org/1999/xlink" x="0px" y="0px"
	 viewBox="0 0 277 56" style="enable-background:new 0 0 277 56;" xml:space="preserve">
<style type="text/css">
	.st0{fill:#1A1036;}
	.st1{fill:url(#SVGID_1_);}
	.st2{fill:url(#SVGID_00000108278321202418642310000012018353989010950283_);}
	.st3{fill:url(#SVGID_00000073707035749895588700000007528724822731918209_);}
</style>
<g>
	<g>
		<path class="st0" d="M101.5,41.4H89.7l-6.4-17.3l-6.4,17.3H65.1l-9.8-26.8h8.9L71,33l6.8-18.3l11,0l6.6,18.2h0.3l6.5-18.2h9
			L101.5,41.4z"/>
		<path class="st0" d="M124.4,14.7c0,0,0.1-0.1,0.2-0.1h11.3c0.1,0,0.1,0,0.2,0.1l17.6,20c0.1,0.1,0.2,0.1,0.3,0l8.2-6.8
			c0.1-0.1,0.1-0.2,0-0.3l-26-21.8c-0.2-0.1-0.1-0.4,0.1-0.4h12.8c0,0,0.1,0,0.1,0l42.5,35.6c0.2,0.1,0.1,0.4-0.1,0.4h-12.8
			c-0.1,0-0.1,0-0.1-0.1l-9.3-7.9c-0.1-0.1-0.2-0.1-0.3,0l-9.5,7.9c0,0-0.1,0-0.1,0H148c-0.1,0-0.1,0-0.2-0.1
			c-1.8-2.2-5.4-6.4-5.4-6.4h-18.5c-0.2,0-0.3-0.2-0.2-0.4l4.4-5.2c0,0,0.1-0.1,0.2-0.1h9c0.2,0,0.3-0.2,0.2-0.4l-6.9-8
			c-0.1-0.1-0.2-0.1-0.3,0l-25.1,29.5c0,0-0.1,0.1-0.2,0.1H94.1c-0.2,0-0.3-0.2-0.2-0.4l6.7-7.9L124.4,14.7z"/>
		<g>
			<path class="st0" d="M178.2,25.8l-6.4-5.4c-0.1-0.1-0.1-0.2,0-0.3l6.5-5.4c0,0,0.1,0,0.1,0l13,0c0.2,0,0.3,0.2,0.1,0.4l-13,10.7
				C178.4,25.8,178.3,25.8,178.2,25.8z"/>
		</g>
	</g>
	<g>
		<path class="st0" d="M206.8,41.4V14.7h15.3l5.6,5.6v15.5l-5.6,5.6H206.8z M211.3,37.4h8.7l3.2-3.2V21.9l-3.2-3.2h-8.7V37.4z"/>
		<path class="st0" d="M236.2,41.4l-4-4V26.5l4-4.1h8.7l4,4.1v7h-12.3v2.7l1.6,1.6h10.4v3.6H236.2z M236.6,30.2h7.9v-2.7l-1.6-1.6
			h-4.8l-1.6,1.6V30.2z"/>
		<path class="st0" d="M254.6,41.4V14.7h16.5v1.9h-14.5v10.3h12.7v1.9h-12.7v12.6H254.6z"/>
		<path class="st0" d="M275,20.4v-4h2v4H275z M275,41.4v-19h2v19H275z"/>
	</g>
	<g>
		
			<linearGradient id="SVGID_1_" gradientUnits="userSpaceOnUse" x1="356.4793" y1="565.5433" x2="356.4793" y2="544.6056" gradientTransform="matrix(-1 0 0 -1 377.0636 595.4686)">
			<stop  offset="0" style="stop-color:#FF774A"/>
			<stop  offset="1" style="stop-color:#EBAF64"/>
		</linearGradient>
		<path class="st1" d="M17.4,40.1L5.4,28l-4.1,4.1c-1.7,1.8-1.7,4.6,0,6.3l16.1,16.2c1.7,1.8,4.6,1.8,6.3,0l16.1-16.2
			c1.7-1.8,1.7-4.6,0-6.3L35.8,28l-12,12.1C22,41.8,19.2,41.8,17.4,40.1z"/>
		
			<linearGradient id="SVGID_00000004519116888884599380000005092950948514484871_" gradientUnits="userSpaceOnUse" x1="20.5843" y1="-0.4536" x2="20.5843" y2="26.4133">
			<stop  offset="0" style="stop-color:#64D5F9"/>
			<stop  offset="1" style="stop-color:#7D70F6"/>
		</linearGradient>
		<path style="fill:url(#SVGID_00000004519116888884599380000005092950948514484871_);" d="M5.4,28l12-12.1c1.7-1.8,4.6-1.8,6.3,0
			l12,12.1l4.1-4.1c1.7-1.8,1.7-4.6,0-6.3L23.7,1.3c-1.7-1.8-4.6-1.8-6.3,0L1.3,17.5c-1.7,1.8-1.7,4.6,0,6.3L5.4,28z"/>
		
			<linearGradient id="SVGID_00000049182379177063522490000008037562992505260479_" gradientUnits="userSpaceOnUse" x1="20.5843" y1="15.3641" x2="20.5843" y2="37.8192">
			<stop  offset="0" style="stop-color:#1A1036"/>
			<stop  offset="1" style="stop-color:#7D70F6"/>
		</linearGradient>
		<path style="fill:url(#SVGID_00000049182379177063522490000008037562992505260479_);" d="M17.4,15.9L5.4,28l12,12.1
			c1.7,1.8,4.6,1.8,6.3,0l12-12.1l-12-12.1C22,14.2,19.2,14.2,17.4,15.9z"/>
	</g>
</g>
</svg>
